<svg width="208" height="125" viewBox="0 0 208 125" fill="none" xmlns="http://www.w3.org/2000/svg">
<path d="M33.9583 115.723H21.6837L19.1157 123.134H13.3918L25.3616 91.3013H30.302L42.2936 123.134H36.5481L33.9583 115.723ZM23.2289 111.263H32.413L27.821 98.0571L23.2289 111.263ZM71.0648 123.134H65.5805V108.989H51.4125V123.134H45.9064V91.3013H51.4125V104.551H65.5805V91.3013H71.0648V123.134ZM95.7228 115.723H83.4482L80.8802 123.134H75.1564L87.1263 91.3013H92.0665L104.058 123.134H98.3126L95.7228 115.723ZM84.9933 111.263H94.1775L89.5855 98.0571L84.9933 111.263ZM117.051 109.492H113.308V123.134H107.823V91.3013H113.308V104.682H116.333L125.647 91.3013H132.394L121.512 106.54L133.352 123.134H126.736L117.051 109.492ZM160.991 108.049C160.991 111.168 160.454 113.908 159.381 116.269C158.307 118.616 156.769 120.423 154.767 121.691C152.779 122.945 150.487 123.572 147.89 123.572C145.322 123.572 143.029 122.945 141.012 121.691C139.01 120.423 137.458 118.623 136.355 116.291C135.267 113.959 134.716 111.27 134.701 108.224V106.431C134.701 103.326 135.245 100.586 136.333 98.2101C137.436 95.8343 138.981 94.0196 140.969 92.7663C142.971 91.4982 145.264 90.864 147.846 90.864C150.429 90.864 152.714 91.4909 154.702 92.7442C156.704 93.9832 158.249 95.776 159.337 98.1228C160.425 100.455 160.977 103.173 160.991 106.278V108.049ZM155.485 106.387C155.485 102.86 154.818 100.156 153.483 98.2758C152.163 96.3955 150.284 95.4554 147.846 95.4554C145.467 95.4554 143.602 96.3955 142.253 98.2758C140.918 100.141 140.236 102.787 140.207 106.212V108.049C140.207 111.547 140.882 114.251 142.231 116.16C143.595 118.069 145.481 119.024 147.89 119.024C150.327 119.024 152.199 118.091 153.504 116.226C154.825 114.36 155.485 111.634 155.485 108.049V106.387ZM191.635 123.134H186.149V108.989H171.982V123.134H166.476V91.3013H171.982V104.551H186.149V91.3013H191.635V123.134Z" fill="#06285A"/>
<path d="M14.5796 77.944V74.3537L16.721 73.5943C36.402 66.69 54.2133 65.965 72.5005 71.2813L76.5114 72.4552L78.9588 71.6956C82.188 70.6255 88.3743 69.2792 92.7932 68.6233C104.078 66.9317 117.335 67.8983 128.824 71.2468L132.699 72.3859L136.608 71.2468C146.907 68.2781 157.852 67.1734 167.879 68.0708C175.426 68.7613 181.714 70.1076 189.737 72.7658L194.393 74.3191V77.944C194.393 80.2568 194.257 81.5341 194.019 81.5341C193.815 81.5341 192.183 81.1544 190.381 80.7055C181.442 78.4272 173.794 77.3915 163.801 77.1499C153.569 76.9083 145.853 77.5986 135.826 79.6354L131.815 80.4639L129.708 79.808C124.847 78.3236 117.437 77.3915 107.885 77.1499C97.5519 76.8738 89.8698 77.5641 79.8426 79.6354C75.8995 80.4294 73.7922 80.3949 72.0925 79.4973C71.4128 79.1522 66.6201 78.3236 61.4873 77.6677C56.7626 77.0809 40.073 77.0809 35.3142 77.6677C30.3854 78.2891 22.9074 79.6354 18.7264 80.671C16.789 81.1544 15.0894 81.5341 14.8855 81.5341C14.7156 81.5341 14.5796 79.946 14.5796 77.944Z" fill="#06285A"/>
<path d="M14.5796 64.4801V60.89L16.721 60.1305C36.402 53.2263 54.2133 52.5013 72.5005 57.8176L76.5114 58.9913L78.9588 58.2319C82.188 57.1618 88.3743 55.8153 92.7932 55.1596C104.078 53.468 117.335 54.4346 128.824 57.7831L132.733 58.9222L135.112 58.1974C144.766 55.125 157.41 53.7096 167.37 54.5726C175.494 55.2976 181.408 56.5749 189.737 59.3021L194.393 60.8555V64.4801C194.393 66.7931 194.257 68.0704 194.019 68.0704C193.815 68.0704 192.183 67.6905 190.381 67.2418C181.442 64.9635 173.794 63.9278 163.801 63.6862C152.924 63.4099 142.454 64.411 137.22 66.2407L134.568 67.1383L129.232 66.0681C119.578 64.1349 116.009 63.7898 104.996 63.7553C93.0991 63.7553 88.8843 64.204 79.2307 66.4478C77.1913 66.9312 76.8853 66.8967 72.2965 65.9646C63.5268 64.1694 59.1759 63.7553 48.5707 63.7553C42.6903 63.7553 37.4897 63.9278 35.3142 64.204C30.3854 64.8254 22.9074 66.1717 18.7264 67.2073C16.789 67.6905 15.0894 68.0704 14.8855 68.0704C14.7156 68.0704 14.5796 66.4823 14.5796 64.4801Z" fill="#06285A"/>
<path d="M14.5796 51.017V47.4267L16.721 46.6674C36.402 39.7631 54.2133 39.0383 72.5005 44.3543L76.5114 45.5282L78.9588 44.7687C82.188 43.6986 88.3743 42.3523 92.7932 41.6963C104.078 40.0047 117.335 40.9713 128.824 44.3198L132.733 45.459L135.112 44.7342C144.766 41.6618 157.41 40.2465 167.37 41.1094C175.494 41.8344 181.408 43.1116 189.737 45.8389L194.393 47.3922V51.017C194.393 53.3299 194.257 54.6071 194.019 54.6071C193.815 54.6071 192.183 54.2275 190.381 53.7441C180.32 51.1896 172.74 50.292 160.741 50.292C148.946 50.292 143.168 50.948 135.792 53.0193C134.67 53.3299 133.379 53.5025 132.903 53.4335C132.427 53.3299 130.183 52.881 127.974 52.3978C120.224 50.7407 115.465 50.292 104.996 50.292C94.8667 50.292 91.5355 50.5682 83.2417 52.0527C77.6671 53.0538 75.2878 53.0883 70.7669 52.1907C63.0848 50.6717 58.972 50.3266 48.7406 50.3266C42.6563 50.292 37.5237 50.4646 35.3142 50.7407C30.3854 51.3622 22.9074 52.7085 18.7264 53.7441C16.789 54.2275 15.0894 54.6071 14.8855 54.6071C14.7156 54.6071 14.5796 53.0193 14.5796 51.017Z" fill="#06285A"/>
<path d="M71.0059 37.5539V33.9638L73.1473 33.2042C89.769 27.3703 104.419 25.9895 119.783 28.7511C124.712 29.6486 127.975 30.5117 133.652 32.3759L138.308 33.9292V37.5539C138.308 39.8669 138.172 41.1442 137.934 41.1442C137.73 41.1442 136.099 40.7643 134.297 40.2811C130.117 39.2455 122.944 37.8992 118.084 37.2778C113.189 36.691 96.5332 36.691 91.7405 37.2778C86.8116 37.8992 79.3337 39.2455 75.1527 40.2811C73.2153 40.7643 71.5157 41.1442 71.3117 41.1442C71.1418 41.1442 71.0059 39.5561 71.0059 37.5539Z" fill="#06285A"/>
<path d="M71.0059 24.0908V20.5007L73.1473 19.7412C89.769 13.9072 104.419 12.5263 119.783 15.288C124.712 16.1855 127.975 17.0486 133.652 18.9126L138.308 20.4662V24.0908C138.308 26.4037 138.172 27.6811 137.934 27.6811C137.73 27.6811 136.099 27.3012 134.297 26.818C130.117 25.7824 122.944 24.4361 118.084 23.8147C113.189 23.2277 96.5332 23.2277 91.7405 23.8147C86.8116 24.4361 79.3337 25.7824 75.1527 26.818C73.2153 27.3012 71.5157 27.6811 71.3117 27.6811C71.1418 27.6811 71.0059 26.093 71.0059 24.0908Z" fill="#06285A"/>
<path d="M71.0059 10.6279V7.03777L73.1473 6.27831C89.769 0.444269 104.419 -0.936567 119.783 1.82511C124.712 2.72265 127.975 3.58568 133.652 5.4498L138.308 7.00325V10.6279C138.308 12.9408 138.172 14.2181 137.934 14.2181C137.73 14.2181 136.099 13.8384 134.297 13.3551C130.117 12.3195 122.944 10.9732 118.084 10.3518C113.189 9.76491 96.5332 9.76491 91.7405 10.3518C86.8116 10.9732 79.3337 12.3195 75.1527 13.3551C73.2153 13.8384 71.5157 14.2181 71.3117 14.2181C71.1418 14.2181 71.0059 12.6302 71.0059 10.6279Z" fill="#06285A"/>
</svg>
