<!DOCTYPE svg PUBLIC "-//W3C//DTD SVG 20010904//EN" "http://www.w3.org/TR/2001/REC-SVG-20010904/DTD/svg10.dtd">
<svg version="1.0" xmlns="http://www.w3.org/2000/svg" width="394px" height="80px" viewBox="0 0 3940 800" preserveAspectRatio="xMidYMid meet">
<g id="layer101" fill="#06285a" stroke="none">
 <path d="M1132 588 c3 -194 3 -206 -9 -138 -23 140 -28 163 -40 167 -15 5 -26 -52 -22 -116 4 -50 -5 -63 -27 -41 -5 5 -41 12 -81 16 l-71 7 -6 56 c-4 31 -10 95 -14 143 -7 91 -12 104 -36 95 -10 -4 -16 -23 -18 -54 -3 -43 -5 -48 -28 -48 -42 0 -52 -35 -43 -155 4 -58 6 -148 5 -200 -2 -52 1 -103 6 -115 5 -11 15 -40 23 -64 24 -73 34 -49 33 77 -1 69 1 109 6 97 5 -11 9 -35 9 -54 1 -19 8 -64 17 -100 16 -66 41 -101 72 -101 13 0 14 16 9 123 -8 158 -6 160 146 131 l27 -6 0 -94 c0 -94 9 -114 31 -72 11 21 13 20 26 -25 10 -35 18 -47 33 -47 18 0 20 7 21 68 l1 67 9 -55 c12 -78 23 -113 37 -118 8 -2 12 15 13 60 1 34 3 55 6 46 5 -20 33 -25 33 -5 -1 6 -5 32 -10 57 -12 56 -39 190 -50 250 -5 25 -9 84 -9 131 -1 83 -14 149 -31 149 -4 0 -15 18 -24 40 -9 24 -22 40 -32 40 -15 0 -16 -21 -12 -212z m-175 -164 c-15 -8 -40 -14 -55 -11 l-27 3 25 11 c14 7 39 12 55 12 l30 0 -28 -15z m202 -156 c0 -28 -2 -30 -9 -13 -12 28 -12 45 0 45 6 0 10 -15 9 -32z"/>
 <path d="M3733 784 c-3 -9 -4 -98 -1 -198 2 -99 3 -170 1 -156 -8 53 -34 174 -39 182 -14 23 -24 -11 -24 -84 0 -72 -2 -79 -17 -73 -33 14 -88 25 -124 25 -30 0 -38 4 -42 23 -7 27 -26 177 -29 232 -2 29 -8 41 -20 43 -15 3 -18 -4 -18 -36 0 -53 -8 -71 -28 -66 -38 9 -47 -11 -46 -108 2 -272 5 -368 14 -368 6 0 10 -17 10 -38 0 -21 6 -47 14 -58 14 -18 15 -18 24 6 6 16 7 57 1 105 -11 105 -11 115 0 115 4 0 11 -30 15 -67 10 -105 29 -165 59 -187 15 -11 30 -16 34 -12 5 4 6 61 5 126 -4 136 1 145 80 135 94 -13 88 -6 88 -94 0 -44 3 -86 6 -95 9 -23 34 -7 35 23 1 26 1 26 9 -4 14 -56 29 -85 45 -85 12 0 15 16 16 88 1 48 3 76 5 62 5 -29 23 -134 30 -167 9 -47 24 -20 25 45 0 50 3 61 9 45 5 -13 15 -23 21 -23 13 0 8 57 -15 160 -31 143 -36 177 -40 292 -5 111 -7 123 -29 147 -14 14 -27 38 -31 54 -7 30 -33 37 -43 11z m-173 -359 c-28 -16 -70 -20 -70 -6 0 11 24 18 65 19 l30 1 -25 -14z"/>
 <path d="M70 770 c0 -21 31 -123 54 -175 7 -16 19 -51 26 -78 11 -42 11 -50 -5 -67 -23 -25 -14 -45 30 -71 20 -12 35 -29 35 -40 0 -27 40 -169 57 -202 9 -18 20 -27 29 -23 8 3 14 -1 14 -8 0 -17 33 -31 38 -17 8 23 21 9 37 -39 12 -37 22 -50 36 -50 14 0 19 7 20 28 0 15 3 21 6 15 2 -7 11 -13 19 -13 10 0 14 13 14 43 0 39 24 135 52 209 9 25 15 28 57 28 55 0 84 14 61 30 -8 5 -24 10 -35 11 -16 1 -15 2 5 8 30 8 42 51 14 51 -10 0 -26 -8 -37 -17 -19 -18 -20 -17 -12 41 4 33 10 69 15 80 4 12 11 65 15 120 6 85 10 99 26 103 12 3 19 14 19 29 0 18 -5 24 -23 24 -18 0 -29 -11 -47 -49 -25 -55 -45 -70 -53 -40 -3 10 -12 19 -21 19 -16 0 -19 -6 -39 -110 l-12 -65 -85 -7 c-47 -3 -93 -8 -104 -10 -20 -3 -24 2 -56 82 -40 101 -72 160 -87 160 -11 0 -13 -8 -8 -32 l6 -33 -15 25 c-9 14 -15 33 -16 43 0 24 -30 21 -30 -3z m494 -172 c-4 -13 -11 -41 -15 -63 -6 -36 -7 -37 -8 -9 -1 30 16 94 26 94 2 0 1 -10 -3 -22z m-120 -149 c-4 -7 -27 -8 -65 -4 -55 6 -59 5 -59 -13 0 -24 18 -32 76 -32 28 0 43 -4 39 -10 -3 -5 -26 -10 -50 -10 -38 0 -47 4 -69 33 -15 19 -26 37 -26 40 0 4 36 7 81 7 55 0 78 -3 73 -11z m82 -35 c-8 -21 -15 -34 -15 -28 -1 15 20 76 25 71 2 -2 -2 -21 -10 -43z m-133 -96 c17 -13 14 -58 -3 -58 -6 0 -30 52 -30 66 0 8 17 3 33 -8z m38 -109 c-9 -23 -10 -23 -10 -2 -1 12 2 30 6 40 6 15 8 15 11 2 1 -8 -2 -26 -7 -40z"/>
 <path d="M1374 758 c4 -18 22 -74 41 -125 40 -107 52 -167 36 -177 -22 -14 -12 -51 19 -69 36 -22 44 -36 59 -107 15 -75 51 -170 64 -170 6 0 19 -7 29 -16 14 -14 21 -14 33 -4 15 13 13 15 45 -65 12 -31 50 -35 50 -5 0 12 5 17 14 14 10 -4 15 10 19 55 4 34 11 69 16 78 6 10 18 46 28 80 l17 63 47 0 c82 0 109 23 42 36 -35 7 -36 8 -13 14 32 7 42 50 12 50 -11 0 -23 -8 -26 -17 -5 -11 -10 -13 -17 -6 -8 8 -6 29 5 71 8 34 18 92 21 129 11 128 16 153 30 153 12 0 25 21 25 41 0 5 -11 9 -24 9 -19 0 -31 -12 -55 -55 -29 -52 -51 -64 -51 -29 0 8 -6 14 -14 14 -16 0 -32 -38 -42 -100 -11 -74 -15 -77 -101 -83 -43 -3 -87 -7 -98 -9 -22 -3 -53 48 -77 127 -14 48 -54 115 -68 115 -6 0 -10 -12 -11 -27 -1 -27 -2 -26 -16 10 -20 48 -48 51 -39 5z m480 -222 c-3 -21 -8 -35 -11 -32 -2 2 -1 20 3 40 3 21 8 35 11 32 2 -2 1 -20 -3 -40z m-104 -87 c0 -8 -20 -9 -65 -4 -55 6 -65 4 -65 -9 0 -22 32 -36 79 -36 23 0 41 -4 41 -10 0 -5 -22 -10 -48 -10 -50 0 -62 7 -90 58 l-12 22 80 0 c52 0 80 -4 80 -11z m81 -40 c-6 -16 -10 -18 -10 -7 -1 22 12 55 16 42 2 -6 -1 -22 -6 -35z m-137 -92 c18 -13 19 -48 2 -48 -5 0 -15 13 -22 30 -14 33 -8 39 20 18z m51 -79 c-7 -31 -25 -63 -25 -43 0 12 23 75 28 75 2 0 1 -15 -3 -32z"/>
 <path d="M2051 678 c0 -57 4 -132 8 -168 41 -333 44 -345 66 -370 12 -14 25 -37 29 -52 7 -30 36 -39 36 -11 0 14 3 13 16 -5 24 -34 51 -28 58 13 8 41 -2 125 -20 179 -19 54 -18 63 12 69 22 4 39 -7 98 -63 147 -139 200 -180 232 -180 33 0 30 12 -11 54 -46 48 -34 46 22 -4 25 -22 52 -40 59 -40 36 0 4 44 -113 156 -115 112 -125 124 -113 141 8 10 42 50 75 88 137 158 159 195 116 195 -15 0 -61 -28 -81 -50 -3 -3 -16 -11 -30 -19 -16 -9 -11 0 16 25 49 46 76 94 64 114 -15 25 -62 -7 -183 -125 -64 -63 -121 -115 -126 -115 -5 0 -20 13 -34 30 -23 27 -33 63 -50 190 -4 30 -33 21 -52 -17 l-19 -38 -4 35 c-4 40 -27 70 -54 70 -16 0 -18 -9 -17 -102z m389 -188 c-17 -22 -34 -40 -36 -40 -2 0 -4 11 -4 24 0 16 11 31 32 44 18 12 34 19 36 17 3 -2 -10 -22 -28 -45z m-134 -76 c19 -17 22 -22 8 -16 -20 10 -52 42 -42 42 3 0 18 -12 34 -26z"/>
 <path d="M2945 723 c-16 -9 -32 -19 -35 -23 -3 -4 -15 -10 -27 -14 -23 -7 -90 -89 -118 -145 -25 -50 -37 -161 -24 -224 24 -110 98 -224 166 -253 39 -17 210 -22 238 -7 12 7 27 24 35 40 8 15 27 47 42 70 32 47 48 117 48 205 0 87 -65 241 -133 316 -47 51 -132 67 -192 35z m124 -180 c14 -12 26 -41 36 -88 23 -112 20 -136 -23 -149 -20 -7 -22 -5 -20 25 4 44 -28 54 -38 12 -9 -37 -35 -76 -44 -66 -17 20 -35 104 -35 164 0 86 18 109 91 118 7 0 21 -7 33 -16z"/>
 </g>

</svg>