<svg width="438" height="48" viewBox="0 0 438 48" fill="none" xmlns="http://www.w3.org/2000/svg">
<path d="M44.232 24.088C44.232 28.824 43.4427 32.9627 41.864 36.504C40.328 40.0027 37.96 42.7333 34.76 44.696C31.56 46.6587 27.464 47.64 22.472 47.64C17.5227 47.64 13.4267 46.6587 10.184 44.696C6.984 42.7333 4.59467 39.9813 3.016 36.44C1.48 32.8987 0.712 28.76 0.712 24.024C0.712 19.288 1.48 15.1707 3.016 11.672C4.59467 8.17333 6.984 5.464 10.184 3.544C13.4267 1.58133 17.544 0.599998 22.536 0.599998C27.4853 0.599998 31.56 1.58133 34.76 3.544C37.96 5.464 40.328 8.19467 41.864 11.736C43.4427 15.2347 44.232 19.352 44.232 24.088ZM10.888 24.088C10.888 28.8667 11.8053 32.6427 13.64 35.416C15.4747 38.1467 18.4187 39.512 22.472 39.512C26.6107 39.512 29.576 38.1467 31.368 35.416C33.16 32.6427 34.056 28.8667 34.056 24.088C34.056 19.2667 33.16 15.4907 31.368 12.76C29.576 10.0293 26.632 8.664 22.536 8.664C18.44 8.664 15.4747 10.0293 13.64 12.76C11.8053 15.4907 10.888 19.2667 10.888 24.088ZM95.1695 24.088C95.1695 28.824 94.3802 32.9627 92.8015 36.504C91.2655 40.0027 88.8975 42.7333 85.6975 44.696C82.4975 46.6587 78.4015 47.64 73.4095 47.64C68.4602 47.64 64.3642 46.6587 61.1215 44.696C57.9215 42.7333 55.5322 39.9813 53.9535 36.44C52.4175 32.8987 51.6495 28.76 51.6495 24.024C51.6495 19.288 52.4175 15.1707 53.9535 11.672C55.5322 8.17333 57.9215 5.464 61.1215 3.544C64.3642 1.58133 68.4815 0.599998 73.4735 0.599998C78.4228 0.599998 82.4975 1.58133 85.6975 3.544C88.8975 5.464 91.2655 8.19467 92.8015 11.736C94.3802 15.2347 95.1695 19.352 95.1695 24.088ZM61.8255 24.088C61.8255 28.8667 62.7428 32.6427 64.5775 35.416C66.4122 38.1467 69.3562 39.512 73.4095 39.512C77.5482 39.512 80.5135 38.1467 82.3055 35.416C84.0975 32.6427 84.9935 28.8667 84.9935 24.088C84.9935 19.2667 84.0975 15.4907 82.3055 12.76C80.5135 10.0293 77.5695 8.664 73.4735 8.664C69.3775 8.664 66.4122 10.0293 64.5775 12.76C62.7428 15.4907 61.8255 19.2667 61.8255 24.088ZM146.107 24.088C146.107 28.824 145.318 32.9627 143.739 36.504C142.203 40.0027 139.835 42.7333 136.635 44.696C133.435 46.6587 129.339 47.64 124.347 47.64C119.398 47.64 115.302 46.6587 112.059 44.696C108.859 42.7333 106.47 39.9813 104.891 36.44C103.355 32.8987 102.587 28.76 102.587 24.024C102.587 19.288 103.355 15.1707 104.891 11.672C106.47 8.17333 108.859 5.464 112.059 3.544C115.302 1.58133 119.419 0.599998 124.411 0.599998C129.36 0.599998 133.435 1.58133 136.635 3.544C139.835 5.464 142.203 8.19467 143.739 11.736C145.318 15.2347 146.107 19.352 146.107 24.088ZM112.763 24.088C112.763 28.8667 113.68 32.6427 115.515 35.416C117.35 38.1467 120.294 39.512 124.347 39.512C128.486 39.512 131.451 38.1467 133.243 35.416C135.035 32.6427 135.931 28.8667 135.931 24.088C135.931 19.2667 135.035 15.4907 133.243 12.76C131.451 10.0293 128.507 8.664 124.411 8.664C120.315 8.664 117.35 10.0293 115.515 12.76C113.68 15.4907 112.763 19.2667 112.763 24.088ZM197.916 47L194.588 36.12H177.948L174.62 47H164.188L180.316 1.112H192.156L208.348 47H197.916ZM188.956 17.368C188.742 16.6427 188.465 15.7253 188.124 14.616C187.782 13.5067 187.441 12.376 187.1 11.224C186.758 10.072 186.481 9.06933 186.268 8.216C186.054 9.06933 185.756 10.136 185.372 11.416C185.03 12.6533 184.689 13.848 184.348 15C184.049 16.1093 183.814 16.8987 183.644 17.368L180.38 27.992H192.284L188.956 17.368ZM251.575 47H241.911V27.288H223.799V47H214.135V1.304H223.799V19.224H241.911V1.304H251.575V47ZM291.041 47L287.713 36.12H271.073L267.745 47H257.312L273.441 1.112H285.281L301.473 47H291.041ZM282.081 17.368C281.867 16.6427 281.59 15.7253 281.249 14.616C280.907 13.5067 280.566 12.376 280.225 11.224C279.883 10.072 279.606 9.06933 279.393 8.216C279.179 9.06933 278.881 10.136 278.497 11.416C278.155 12.6533 277.814 13.848 277.473 15C277.174 16.1093 276.939 16.8987 276.769 17.368L273.505 27.992H285.409L282.081 17.368ZM344.508 47H333.5L316.924 23.832V47H307.26V1.304H316.924V23.448L333.308 1.304H343.612L326.972 23.256L344.508 47ZM390.482 24.088C390.482 28.824 389.693 32.9627 388.114 36.504C386.578 40.0027 384.21 42.7333 381.01 44.696C377.81 46.6587 373.714 47.64 368.722 47.64C363.773 47.64 359.677 46.6587 356.434 44.696C353.234 42.7333 350.845 39.9813 349.266 36.44C347.73 32.8987 346.962 28.76 346.962 24.024C346.962 19.288 347.73 15.1707 349.266 11.672C350.845 8.17333 353.234 5.464 356.434 3.544C359.677 1.58133 363.794 0.599998 368.786 0.599998C373.735 0.599998 377.81 1.58133 381.01 3.544C384.21 5.464 386.578 8.19467 388.114 11.736C389.693 15.2347 390.482 19.352 390.482 24.088ZM357.138 24.088C357.138 28.8667 358.055 32.6427 359.89 35.416C361.725 38.1467 364.669 39.512 368.722 39.512C372.861 39.512 375.826 38.1467 377.618 35.416C379.41 32.6427 380.306 28.8667 380.306 24.088C380.306 19.2667 379.41 15.4907 377.618 12.76C375.826 10.0293 372.882 8.664 368.786 8.664C364.69 8.664 361.725 10.0293 359.89 12.76C358.055 15.4907 357.138 19.2667 357.138 24.088ZM437.388 47H427.724V27.288H409.612V47H399.948V1.304H409.612V19.224H427.724V1.304H437.388V47Z" fill="#06285A"/>
</svg>
