<svg width="421" height="48" viewBox="0 0 421 48" fill="none" xmlns="http://www.w3.org/2000/svg">
<rect width="421" height="48" fill="#E5E5E5"/>
<path d="M43.08 24.088C43.08 28.824 42.2693 32.9627 40.648 36.504C39.0693 40.0027 36.7227 42.7333 33.608 44.696C30.4933 46.6587 26.632 47.64 22.024 47.64C17.288 47.64 13.3413 46.6587 10.184 44.696C7.06933 42.7333 4.744 39.9813 3.208 36.44C1.672 32.8987 0.904 28.76 0.904 24.024C0.904 19.3307 1.672 15.2347 3.208 11.736C4.744 8.23733 7.06933 5.50667 10.184 3.544C13.3413 1.58133 17.3093 0.599998 22.088 0.599998C26.6533 0.599998 30.4933 1.58133 33.608 3.544C36.7227 5.464 39.0693 8.19467 40.648 11.736C42.2693 15.2347 43.08 19.352 43.08 24.088ZM6.984 24.088C6.984 29.848 8.2 34.392 10.632 37.72C13.064 41.0053 16.8613 42.648 22.024 42.648C27.2293 42.648 31.0267 41.0053 33.416 37.72C35.8053 34.392 37 29.848 37 24.088C37 18.328 35.8053 13.8267 33.416 10.584C31.0267 7.29867 27.2507 5.656 22.088 5.656C16.9253 5.656 13.1067 7.29867 10.632 10.584C8.2 13.8267 6.984 18.328 6.984 24.088ZM93.08 24.088C93.08 28.824 92.2693 32.9627 90.648 36.504C89.0693 40.0027 86.7227 42.7333 83.608 44.696C80.4933 46.6587 76.632 47.64 72.024 47.64C67.288 47.64 63.3413 46.6587 60.184 44.696C57.0693 42.7333 54.744 39.9813 53.208 36.44C51.672 32.8987 50.904 28.76 50.904 24.024C50.904 19.3307 51.672 15.2347 53.208 11.736C54.744 8.23733 57.0693 5.50667 60.184 3.544C63.3413 1.58133 67.3093 0.599998 72.088 0.599998C76.6533 0.599998 80.4933 1.58133 83.608 3.544C86.7227 5.464 89.0693 8.19467 90.648 11.736C92.2693 15.2347 93.08 19.352 93.08 24.088ZM56.984 24.088C56.984 29.848 58.2 34.392 60.632 37.72C63.064 41.0053 66.8613 42.648 72.024 42.648C77.2293 42.648 81.0267 41.0053 83.416 37.72C85.8053 34.392 87 29.848 87 24.088C87 18.328 85.8053 13.8267 83.416 10.584C81.0267 7.29867 77.2507 5.656 72.088 5.656C66.9253 5.656 63.1067 7.29867 60.632 10.584C58.2 13.8267 56.984 18.328 56.984 24.088ZM143.08 24.088C143.08 28.824 142.269 32.9627 140.648 36.504C139.069 40.0027 136.723 42.7333 133.608 44.696C130.493 46.6587 126.632 47.64 122.024 47.64C117.288 47.64 113.341 46.6587 110.184 44.696C107.069 42.7333 104.744 39.9813 103.208 36.44C101.672 32.8987 100.904 28.76 100.904 24.024C100.904 19.3307 101.672 15.2347 103.208 11.736C104.744 8.23733 107.069 5.50667 110.184 3.544C113.341 1.58133 117.309 0.599998 122.088 0.599998C126.653 0.599998 130.493 1.58133 133.608 3.544C136.723 5.464 139.069 8.19467 140.648 11.736C142.269 15.2347 143.08 19.352 143.08 24.088ZM106.984 24.088C106.984 29.848 108.2 34.392 110.632 37.72C113.064 41.0053 116.861 42.648 122.024 42.648C127.229 42.648 131.027 41.0053 133.416 37.72C135.805 34.392 137 29.848 137 24.088C137 18.328 135.805 13.8267 133.416 10.584C131.027 7.29867 127.251 5.656 122.088 5.656C116.925 5.656 113.107 7.29867 110.632 10.584C108.2 13.8267 106.984 18.328 106.984 24.088ZM196.255 47L190.751 32.856H172.639L167.199 47H161.375L179.231 1.112H184.415L202.207 47H196.255ZM183.903 13.912C183.775 13.5707 183.562 12.952 183.263 12.056C182.964 11.16 182.666 10.2427 182.367 9.304C182.111 8.32266 181.898 7.576 181.727 7.064C181.428 8.38666 181.087 9.688 180.703 10.968C180.319 12.2053 179.999 13.1867 179.743 13.912L174.559 27.736H189.023L183.903 13.912ZM243.402 47H237.642V25.688H214.218V47H208.458V1.304H214.218V20.632H237.642V1.304H243.402V47ZM284.568 47L279.064 32.856H260.952L255.512 47H249.688L267.544 1.112H272.728L290.52 47H284.568ZM272.216 13.912C272.088 13.5707 271.874 12.952 271.576 12.056C271.277 11.16 270.978 10.2427 270.68 9.304C270.424 8.32266 270.21 7.576 270.04 7.064C269.741 8.38666 269.4 9.688 269.016 10.968C268.632 12.2053 268.312 13.1867 268.056 13.912L262.872 27.736H277.336L272.216 13.912ZM330.115 47H323.203L302.531 23.832V47H296.771V1.304H302.531V23.448L322.691 1.304H329.219L309.378 23.512L330.115 47ZM374.955 24.088C374.955 28.824 374.144 32.9627 372.523 36.504C370.944 40.0027 368.598 42.7333 365.483 44.696C362.368 46.6587 358.507 47.64 353.899 47.64C349.163 47.64 345.216 46.6587 342.059 44.696C338.944 42.7333 336.619 39.9813 335.083 36.44C333.547 32.8987 332.779 28.76 332.779 24.024C332.779 19.3307 333.547 15.2347 335.083 11.736C336.619 8.23733 338.944 5.50667 342.059 3.544C345.216 1.58133 349.184 0.599998 353.963 0.599998C358.528 0.599998 362.368 1.58133 365.483 3.544C368.598 5.464 370.944 8.19467 372.523 11.736C374.144 15.2347 374.955 19.352 374.955 24.088ZM338.859 24.088C338.859 29.848 340.075 34.392 342.507 37.72C344.939 41.0053 348.736 42.648 353.899 42.648C359.104 42.648 362.902 41.0053 365.291 37.72C367.68 34.392 368.875 29.848 368.875 24.088C368.875 18.328 367.68 13.8267 365.291 10.584C362.902 7.29867 359.126 5.656 353.963 5.656C348.8 5.656 344.982 7.29867 342.507 10.584C340.075 13.8267 338.859 18.328 338.859 24.088ZM420.027 47H414.267V25.688H390.843V47H385.083V1.304H390.843V20.632H414.267V1.304H420.027V47Z" fill="#06285A"/>
</svg>
