<svg width="112" height="67" viewBox="0 0 112 67" fill="none" xmlns="http://www.w3.org/2000/svg">
<path d="M18.2852 62.0273H11.6758L10.293 66H7.21094L13.6562 48.9375H16.3164L22.7734 66H19.6797L18.2852 62.0273ZM12.5078 59.6367H17.4531L14.9805 52.5586L12.5078 59.6367ZM38.2656 66H35.3125V58.418H27.6836V66H24.7188V48.9375H27.6836V56.0391H35.3125V48.9375H38.2656V66ZM51.543 62.0273H44.9336L43.5508 66H40.4688L46.9141 48.9375H49.5742L56.0312 66H52.9375L51.543 62.0273ZM45.7656 59.6367H50.7109L48.2383 52.5586L45.7656 59.6367ZM63.0273 58.6875H61.0117V66H58.0586V48.9375H61.0117V56.1094H62.6406L67.6562 48.9375H71.2891L65.4297 57.1055L71.8047 66H68.2422L63.0273 58.6875ZM86.6875 57.9141C86.6875 59.5859 86.3984 61.0547 85.8203 62.3203C85.2422 63.5781 84.4141 64.5469 83.3359 65.2266C82.2656 65.8984 81.0312 66.2344 79.6328 66.2344C78.25 66.2344 77.0156 65.8984 75.9297 65.2266C74.8516 64.5469 74.0156 63.582 73.4219 62.332C72.8359 61.082 72.5391 59.6406 72.5312 58.0078V57.0469C72.5312 55.3828 72.8242 53.9141 73.4102 52.6406C74.0039 51.3672 74.8359 50.3945 75.9062 49.7227C76.9844 49.043 78.2188 48.7031 79.6094 48.7031C81 48.7031 82.2305 49.0391 83.3008 49.7109C84.3789 50.375 85.2109 51.3359 85.7969 52.5938C86.3828 53.8438 86.6797 55.3008 86.6875 56.9648V57.9141ZM83.7227 57.0234C83.7227 55.1328 83.3633 53.6836 82.6445 52.6758C81.9336 51.668 80.9219 51.1641 79.6094 51.1641C78.3281 51.1641 77.3242 51.668 76.5977 52.6758C75.8789 53.6758 75.5117 55.0938 75.4961 56.9297V57.9141C75.4961 59.7891 75.8594 61.2383 76.5859 62.2617C77.3203 63.2852 78.3359 63.7969 79.6328 63.7969C80.9453 63.7969 81.9531 63.2969 82.6562 62.2969C83.3672 61.2969 83.7227 59.8359 83.7227 57.9141V57.0234ZM103.188 66H100.234V58.418H92.6055V66H89.6406V48.9375H92.6055V56.0391H100.234V48.9375H103.188V66Z" fill="#06285A"/>
<path d="M7.85059 41.778V39.8536L9.00367 39.4466C19.6011 35.7459 29.1918 35.3573 39.0388 38.2068L41.1985 38.836L42.5163 38.4289C44.2551 37.8553 47.5862 37.1337 49.9656 36.7821C56.0422 35.8754 63.1803 36.3935 69.3667 38.1883L71.4532 38.7989L73.5581 38.1883C79.1038 36.5971 84.9974 36.005 90.3967 36.486C94.46 36.8561 97.846 37.5777 102.166 39.0025L104.673 39.8351V41.778C104.673 43.0177 104.6 43.7023 104.472 43.7023C104.362 43.7023 103.483 43.4988 102.513 43.2582C97.6996 42.037 93.5814 41.4819 88.2004 41.3524C82.6912 41.2229 78.5364 41.5929 73.1371 42.6846L70.9773 43.1287L69.8426 42.7771C67.2252 41.9815 63.2352 41.4819 58.0921 41.3524C52.528 41.2044 48.3915 41.5744 42.9922 42.6846C40.869 43.1102 39.7343 43.0917 38.8191 42.6106C38.4531 42.4256 35.8724 41.9815 33.1086 41.6299C30.5645 41.3154 21.5778 41.3154 19.0154 41.6299C16.3614 41.963 12.3348 42.6846 10.0835 43.2397C9.04028 43.4988 8.12513 43.7023 8.01531 43.7023C7.9238 43.7023 7.85059 42.8511 7.85059 41.778Z" fill="#06285A"/>
<path d="M7.85059 34.5613V32.637L9.00367 32.2299C19.6011 28.5293 29.1918 28.1407 39.0388 30.9902L41.1985 31.6193L42.5163 31.2123C44.2551 30.6387 47.5862 29.917 49.9656 29.5655C56.0422 28.6588 63.1803 29.1769 69.3667 30.9717L71.4715 31.5823L72.7527 31.1938C77.9508 29.547 84.7594 28.7883 90.1222 29.2509C94.4966 29.6395 97.6813 30.3241 102.166 31.7859L104.673 32.6185V34.5613C104.673 35.8011 104.6 36.4857 104.472 36.4857C104.362 36.4857 103.483 36.2821 102.513 36.0416C97.6996 34.8204 93.5814 34.2653 88.2004 34.1358C82.3435 33.9877 76.7062 34.5243 73.8875 35.505L72.4599 35.9861L69.5863 35.4125C64.3883 34.3763 62.4665 34.1913 56.5363 34.1728C50.1303 34.1728 47.8608 34.4133 42.6627 35.616C41.5646 35.8751 41.3998 35.8566 38.9289 35.357C34.2068 34.3948 31.864 34.1728 26.1535 34.1728C22.9871 34.1728 20.1868 34.2653 19.0154 34.4133C16.3614 34.7464 12.3348 35.468 10.0835 36.0231C9.04028 36.2821 8.12513 36.4857 8.01531 36.4857C7.9238 36.4857 7.85059 35.6345 7.85059 34.5613Z" fill="#06285A"/>
<path d="M7.85059 27.3451V25.4207L9.00367 25.0137C19.6011 21.313 29.1918 20.9245 39.0388 23.7739L41.1985 24.4031L42.5163 23.996C44.2551 23.4224 47.5862 22.7008 49.9656 22.3492C56.0422 21.4425 63.1803 21.9606 69.3667 23.7554L71.4715 24.366L72.7527 23.9775C77.9508 22.3307 84.7594 21.5721 90.1222 22.0346C94.4966 22.4232 97.6813 23.1078 102.166 24.5696L104.673 25.4022V27.3451C104.673 28.5848 104.6 29.2694 104.472 29.2694C104.362 29.2694 103.483 29.0659 102.513 28.8068C97.0956 27.4376 93.0141 26.9565 86.5531 26.9565C80.202 26.9565 77.0905 27.3081 73.1188 28.4183C72.5148 28.5848 71.8193 28.6773 71.563 28.6403C71.3068 28.5848 70.0988 28.3442 68.9091 28.0852C64.736 27.197 62.1736 26.9565 56.5363 26.9565C51.0821 26.9565 49.2884 27.1045 44.8225 27.9002C41.8208 28.4368 40.5396 28.4553 38.1053 27.9742C33.9688 27.16 31.7542 26.975 26.245 26.975C22.9688 26.9565 20.2051 27.049 19.0154 27.197C16.3614 27.5301 12.3348 28.2517 10.0835 28.8068C9.04028 29.0659 8.12513 29.2694 8.01531 29.2694C7.9238 29.2694 7.85059 28.4183 7.85059 27.3451Z" fill="#06285A"/>
<path d="M38.2339 20.1289V18.2046L39.387 17.7975C48.3371 14.6705 56.2257 13.9304 64.4986 15.4106C67.1525 15.8917 68.9096 16.3543 71.9662 17.3535L74.4737 18.1861V20.1289C74.4737 21.3687 74.4004 22.0533 74.2723 22.0533C74.1625 22.0533 73.284 21.8497 72.3139 21.5907C70.0627 21.0356 66.2007 20.314 63.5834 19.9809C60.9478 19.6664 51.9794 19.6664 49.3987 19.9809C46.7447 20.314 42.7181 21.0356 40.4668 21.5907C39.4236 21.8497 38.5084 22.0533 38.3986 22.0533C38.3071 22.0533 38.2339 21.2021 38.2339 20.1289Z" fill="#06285A"/>
<path d="M38.2339 12.9127V10.9884L39.387 10.5813C48.3371 7.45427 56.2257 6.71414 64.4986 8.1944C67.1525 8.67548 68.9096 9.13806 71.9662 10.1372L74.4737 10.9699V12.9127C74.4737 14.1524 74.4004 14.8371 74.2723 14.8371C74.1625 14.8371 73.284 14.6335 72.3139 14.3745C70.0627 13.8194 66.2007 13.0978 63.5834 12.7647C60.9478 12.4501 51.9794 12.4501 49.3987 12.7647C46.7447 13.0978 42.7181 13.8194 40.4668 14.3745C39.4236 14.6335 38.5084 14.8371 38.3986 14.8371C38.3071 14.8371 38.2339 13.9859 38.2339 12.9127Z" fill="#06285A"/>
<path d="M38.2339 5.69656V3.77223L39.387 3.36516C48.3371 0.238116 56.2257 -0.502012 64.4986 0.978245C67.1525 1.45933 68.9096 1.92191 71.9662 2.92108L74.4737 3.75373V5.69656C74.4737 6.93628 74.4004 7.6209 74.2723 7.6209C74.1625 7.6209 73.284 7.41736 72.3139 7.15832C70.0627 6.60322 66.2007 5.8816 63.5834 5.54854C60.9478 5.23398 51.9794 5.23398 49.3987 5.54854C46.7447 5.8816 42.7181 6.60322 40.4668 7.15832C39.4236 7.41736 38.5084 7.6209 38.3986 7.6209C38.3071 7.6209 38.2339 6.76975 38.2339 5.69656Z" fill="#06285A"/>
</svg>
