<svg width="452" height="105" viewBox="0 0 452 105" fill="none" xmlns="http://www.w3.org/2000/svg">
<rect x="2" width="448" height="88" fill="white"/>
<path d="M2 38.3622C165.2 -18.4378 368.667 14.6956 450 38.3622" stroke="#06285A" stroke-width="11"/>
<path d="M115.539 77.7461H97.5605L94.1426 88H83.2393L101.765 38.2344H111.267L129.895 88H118.991L115.539 77.7461ZM100.329 69.4404H112.771L106.516 50.8125L100.329 69.4404ZM175.046 88H164.792V66.6719H144.797V88H134.543V38.2344H144.797V58.4004H164.792V38.2344H175.046V88ZM212.746 77.7461H194.768L191.35 88H180.446L198.972 38.2344H208.474L227.102 88H216.198L212.746 77.7461ZM197.536 69.4404H209.978L203.723 50.8125L197.536 69.4404ZM247.985 67.6631H242.072V88H231.818V38.2344H242.072V58.1611H246.755L258.923 38.2344H271.433L256.086 61.7842L273.039 88H260.803L247.985 67.6631ZM316.789 64.2451C316.789 69.1442 315.923 73.4395 314.191 77.1309C312.46 80.8223 309.976 83.6706 306.74 85.6758C303.527 87.681 299.836 88.6836 295.666 88.6836C291.542 88.6836 287.862 87.6924 284.626 85.71C281.39 83.7275 278.884 80.902 277.106 77.2334C275.329 73.542 274.429 69.3037 274.406 64.5186V62.0576C274.406 57.1585 275.284 52.8519 277.038 49.1377C278.815 45.4007 281.311 42.541 284.523 40.5586C287.759 38.5534 291.451 37.5508 295.598 37.5508C299.745 37.5508 303.425 38.5534 306.638 40.5586C309.873 42.541 312.368 45.4007 314.123 49.1377C315.9 52.8519 316.789 57.1471 316.789 62.0234V64.2451ZM306.398 61.9893C306.398 56.7712 305.464 52.8063 303.596 50.0947C301.727 47.3831 299.061 46.0273 295.598 46.0273C292.157 46.0273 289.502 47.3717 287.634 50.0605C285.765 52.7266 284.82 56.6458 284.797 61.8184V64.2451C284.797 69.3265 285.731 73.2686 287.6 76.0713C289.468 78.874 292.157 80.2754 295.666 80.2754C299.107 80.2754 301.75 78.931 303.596 76.2422C305.441 73.5306 306.376 69.5885 306.398 64.416V61.9893ZM364.743 88H354.489V66.6719H334.494V88H324.24V38.2344H334.494V58.4004H354.489V38.2344H364.743V88Z" fill="#06285A"/>
</svg>
